<svg width="154" height="36" viewBox="0 0 154 36" fill="none" xmlns="http://www.w3.org/2000/svg">
<path d="M4.66 22.86H9.14V25.5H1.24V11.46H4.66V22.86ZM17.4113 25.64C16.0913 25.64 14.8779 25.3333 13.7713 24.72C12.6779 24.1067 11.8046 23.2533 11.1513 22.16C10.5112 21.0533 10.1912 19.8133 10.1912 18.44C10.1912 17.0667 10.5112 15.8333 11.1513 14.74C11.8046 13.6467 12.6779 12.7933 13.7713 12.18C14.8779 11.5667 16.0913 11.26 17.4113 11.26C18.7313 11.26 19.9379 11.5667 21.0313 12.18C22.1379 12.7933 23.0046 13.6467 23.6313 14.74C24.2713 15.8333 24.5913 17.0667 24.5913 18.44C24.5913 19.8133 24.2713 21.0533 23.6313 22.16C22.9913 23.2533 22.1246 24.1067 21.0313 24.72C19.9379 25.3333 18.7313 25.64 17.4113 25.64ZM17.4113 22.52C18.5313 22.52 19.4246 22.1467 20.0912 21.4C20.7713 20.6533 21.1113 19.6667 21.1113 18.44C21.1113 17.2 20.7713 16.2133 20.0912 15.48C19.4246 14.7333 18.5313 14.36 17.4113 14.36C16.2779 14.36 15.3713 14.7267 14.6913 15.46C14.0246 16.1933 13.6913 17.1867 13.6913 18.44C13.6913 19.68 14.0246 20.6733 14.6913 21.42C15.3713 22.1533 16.2779 22.52 17.4113 22.52ZM35.8139 15.9C35.5606 15.4333 35.1939 15.08 34.7139 14.84C34.2472 14.5867 33.6939 14.46 33.0539 14.46C31.9472 14.46 31.0606 14.8267 30.3939 15.56C29.7272 16.28 29.3939 17.2467 29.3939 18.46C29.3939 19.7533 29.7406 20.7667 30.4339 21.5C31.1406 22.22 32.1072 22.58 33.3339 22.58C34.1739 22.58 34.8806 22.3667 35.4539 21.94C36.0406 21.5133 36.4672 20.9 36.7339 20.1H32.3939V17.58H39.8339V20.76C39.5806 21.6133 39.1472 22.4067 38.5339 23.14C37.9339 23.8733 37.1672 24.4667 36.2339 24.92C35.3006 25.3733 34.2472 25.6 33.0739 25.6C31.6872 25.6 30.4472 25.3 29.3539 24.7C28.2739 24.0867 27.4272 23.24 26.8139 22.16C26.2139 21.08 25.9139 19.8467 25.9139 18.46C25.9139 17.0733 26.2139 15.84 26.8139 14.76C27.4272 13.6667 28.2739 12.82 29.3539 12.22C30.4339 11.6067 31.6672 11.3 33.0539 11.3C34.7339 11.3 36.1472 11.7067 37.2939 12.52C38.4539 13.3333 39.2206 14.46 39.5939 15.9H35.8139ZM48.3683 25.64C47.0483 25.64 45.8349 25.3333 44.7283 24.72C43.6349 24.1067 42.7616 23.2533 42.1083 22.16C41.4683 21.0533 41.1483 19.8133 41.1483 18.44C41.1483 17.0667 41.4683 15.8333 42.1083 14.74C42.7616 13.6467 43.6349 12.7933 44.7283 12.18C45.8349 11.5667 47.0483 11.26 48.3683 11.26C49.6883 11.26 50.8949 11.5667 51.9883 12.18C53.0949 12.7933 53.9616 13.6467 54.5883 14.74C55.2283 15.8333 55.5483 17.0667 55.5483 18.44C55.5483 19.8133 55.2283 21.0533 54.5883 22.16C53.9483 23.2533 53.0816 24.1067 51.9883 24.72C50.8949 25.3333 49.6883 25.64 48.3683 25.64ZM48.3683 22.52C49.4883 22.52 50.3816 22.1467 51.0483 21.4C51.7283 20.6533 52.0683 19.6667 52.0683 18.44C52.0683 17.2 51.7283 16.2133 51.0483 15.48C50.3816 14.7333 49.4883 14.36 48.3683 14.36C47.2349 14.36 46.3283 14.7267 45.6483 15.46C44.9816 16.1933 44.6483 17.1867 44.6483 18.44C44.6483 19.68 44.9816 20.6733 45.6483 21.42C46.3283 22.1533 47.2349 22.52 48.3683 22.52Z" fill="#2D2D2D"/>
</svg>
